<svg width="28" height="28" viewBox="0 0 28 28" fill="none" xmlns="http://www.w3.org/2000/svg">
  <!-- Wallet with arrows matching Pencil design "Linear / Money / Wallet Money" -->
  <path d="M4 9a2 2 0 012-2h16a2 2 0 012 2v12a2 2 0 01-2 2H6a2 2 0 01-2-2V9z" stroke="#212121" stroke-width="2" fill="none" stroke-linecap="round" stroke-linejoin="round"/>
  <path d="M4 9V7a2 2 0 012-2h12l4 4" stroke="#212121" stroke-width="2" fill="none" stroke-linecap="round" stroke-linejoin="round"/>
  <path d="M20 14h-4m0 0l1.5-1.5M16 14l1.5 1.5" stroke="#212121" stroke-width="2" fill="none" stroke-linecap="round" stroke-linejoin="round"/>
  <path d="M8 17h4m0 0l-1.5-1.5M12 17l-1.5 1.5" stroke="#212121" stroke-width="2" fill="none" stroke-linecap="round" stroke-linejoin="round"/>
</svg>
