<svg width="50" height="50" viewBox="0 0 50 50" fill="none" xmlns="http://www.w3.org/2000/svg">
  <circle cx="25" cy="25" r="25" fill="#F0F0F0"/>
  <!-- Document with dollar lines - matches Pencil design -->
  <path d="M17 14h10l6 6v16a2 2 0 01-2 2H17a2 2 0 01-2-2V16a2 2 0 012-2z" stroke="#0091EA" stroke-width="1.8" fill="none" stroke-linecap="round" stroke-linejoin="round"/>
  <path d="M27 14v6h6" stroke="#0091EA" stroke-width="1.8" fill="none" stroke-linecap="round" stroke-linejoin="round"/>
  <!-- Dollar sign -->
  <path d="M23 25v-1.5c0-.83.67-1.5 1.5-1.5h1c.83 0 1.5.67 1.5 1.5s-.67 1.5-1.5 1.5h-1c-.83 0-1.5.67-1.5 1.5s.67 1.5 1.5 1.5h1c.83 0 1.5-.67 1.5-1.5" stroke="#0091EA" stroke-width="1.5" fill="none" stroke-linecap="round"/>
  <line x1="24.5" y1="21" x2="24.5" y2="22" stroke="#0091EA" stroke-width="1.5" stroke-linecap="round"/>
  <line x1="24.5" y1="28" x2="24.5" y2="29" stroke="#0091EA" stroke-width="1.5" stroke-linecap="round"/>
  <!-- Horizontal lines -->
  <line x1="19" y1="32" x2="24" y2="32" stroke="#0091EA" stroke-width="1.5" stroke-linecap="round"/>
  <line x1="19" y1="35" x2="22" y2="35" stroke="#0091EA" stroke-width="1.5" stroke-linecap="round"/>
</svg>
